<?xml version="1.0" standalone="no"?>
<!DOCTYPE svg PUBLIC "-//W3C//DTD SVG 20010904//EN"
 "http://www.w3.org/TR/2001/REC-SVG-20010904/DTD/svg10.dtd">
<svg version="1.0" xmlns="http://www.w3.org/2000/svg"
 width="1279.000000pt" height="341.000000pt" viewBox="0 0 1279.000000 341.000000"
 preserveAspectRatio="xMidYMid meet">

<g transform="translate(0.000000,341.000000) scale(0.100000,-0.100000)"
fill="#000000" stroke="none">
<path d="M2105 3284 c-171 -20 -342 -109 -399 -207 -65 -111 -1156 -2717
-1156 -2760 0 -32 38 -86 78 -114 51 -34 148 -62 252 -72 57 -6 2034 -11 4980
-12 4631 -2 4888 -2 4950 15 103 28 189 75 250 136 l55 55 164 430 c90 237
328 854 528 1373 199 519 363 952 363 963 0 70 -79 134 -215 176 -58 17 -251
18 -4940 19 -2684 1 -4893 0 -4910 -2z m1125 -700 c77 -21 176 -96 225 -169
56 -85 95 -203 95 -291 0 -162 -94 -344 -278 -536 -46 -47 -116 -109 -155
-136 -63 -43 -379 -222 -392 -222 -19 0 6 25 73 70 360 246 549 456 626 694
42 128 34 208 -31 332 -63 119 -227 192 -371 165 -117 -22 -183 -60 -284 -162
l-90 -91 -27 19 c-47 35 -85 50 -156 63 -61 11 -79 10 -135 -4 -119 -31 -181
-83 -240 -200 -26 -52 -30 -70 -30 -147 0 -209 99 -406 330 -654 91 -97 123
-127 254 -239 31 -26 55 -51 52 -54 -6 -5 -164 95 -261 167 -87 64 -253 235
-308 317 -67 101 -132 229 -153 299 -23 78 -23 222 -1 288 47 135 143 250 252
303 56 27 68 29 180 29 108 0 126 -3 185 -27 l64 -27 61 57 c128 123 231 170
374 171 49 1 109 -6 141 -15z m902 -144 c-6 -38 -30 -48 -115 -48 -43 0 -81
-2 -83 -5 -3 -2 -8 -21 -11 -41 l-6 -36 77 0 c81 0 89 -6 66 -51 -9 -16 -22
-19 -89 -19 l-79 0 -28 -87 c-19 -61 -24 -88 -16 -91 32 -10 5 -22 -53 -22
-48 0 -67 4 -71 14 -3 8 19 97 50 198 48 160 53 184 40 194 -25 20 0 23 166
21 l155 -2 -3 -25z m243 19 c4 -6 13 -81 21 -167 14 -159 21 -212 31 -238 4
-11 -6 -14 -48 -14 -68 0 -89 18 -89 77 l0 43 -74 0 -73 0 -27 -41 c-17 -25
-25 -47 -21 -60 6 -17 1 -19 -54 -19 -66 0 -80 10 -58 43 9 12 67 96 130 187
78 112 112 169 106 177 -14 16 5 21 83 22 38 1 70 -4 73 -10z m480 -3 c55 -23
69 -71 40 -139 -16 -38 -56 -72 -98 -82 -15 -4 -27 -9 -27 -11 0 -20 52 -114
64 -114 24 0 29 -19 12 -45 -13 -20 -25 -25 -59 -25 -23 0 -47 4 -53 8 -6 4
-24 43 -41 87 -38 100 -58 106 -86 25 -11 -32 -17 -68 -14 -87 l6 -33 -64 0
c-35 0 -67 4 -70 10 -3 5 13 71 36 147 65 218 69 236 59 248 -6 7 -7 15 -3 18
13 14 263 7 298 -7z m319 8 c12 -5 16 -20 16 -64 0 -80 11 -180 21 -180 4 0
33 48 63 106 44 83 54 109 45 120 -16 20 5 26 82 22 l64 -3 7 -55 c3 -30 6
-117 7 -192 1 -76 5 -138 10 -138 16 0 252 349 249 367 -3 16 6 18 67 21 39 1
75 -1 82 -5 12 -9 33 -189 33 -292 0 -39 6 -78 15 -95 8 -15 15 -30 15 -32 0
-9 -119 -3 -125 7 -4 5 -10 31 -13 57 l-7 47 -72 3 -71 3 -31 -45 c-18 -26
-28 -51 -25 -61 6 -14 -7 -15 -112 -13 l-119 3 -3 128 c-1 73 -7 127 -12 127
-6 0 -39 -59 -75 -131 l-66 -130 -52 3 -52 3 -6 118 c-9 164 -14 166 -74 19
-25 -62 -35 -101 -31 -117 6 -25 5 -25 -54 -25 -82 0 -82 -4 18 210 70 151 82
183 72 195 -5 6 -7 15 -3 18 8 9 116 9 137 1z m1206 -12 c0 -38 -22 -51 -100
-56 -91 -7 -102 -17 -135 -115 -25 -74 -32 -135 -16 -159 9 -15 151 -13 184 2
25 12 23 -24 -4 -58 -20 -25 -24 -26 -125 -26 -119 0 -154 12 -180 62 -19 36
-14 79 18 178 32 100 74 157 128 179 14 5 71 10 128 10 92 1 102 -1 102 -17z
m228 5 c11 -13 7 -29 -73 -278 -28 -86 -30 -110 -13 -127 9 -9 -5 -12 -64 -12
-52 0 -78 4 -81 13 -4 13 15 81 39 134 8 17 14 36 14 43 0 6 14 54 31 106 24
71 29 97 20 107 -6 8 -8 17 -4 20 12 13 120 7 131 -6z m342 -2 c11 -13 20 -88
36 -298 4 -48 11 -90 16 -93 23 -14 2 -24 -51 -24 -68 0 -78 8 -83 70 l-3 45
-72 3 -72 3 -25 -38 c-14 -21 -26 -48 -26 -60 0 -21 -4 -23 -59 -23 -33 0 -62
4 -65 9 -5 8 24 53 179 275 38 54 70 108 71 120 1 12 3 22 3 24 1 1 32 2 70 2
48 0 72 -4 81 -15z m-4148 -497 l3 -83 93 -3 93 -3 -3 -87 -3 -87 -90 -5 -90
-5 -3 -75 c-2 -44 -8 -78 -15 -82 -18 -11 -145 -10 -168 2 -16 9 -19 22 -19
85 l0 74 -87 3 -88 3 -3 88 -3 87 91 0 90 0 0 78 c0 43 3 82 7 85 3 4 48 7 99
7 l93 0 3 -82z m1135 16 c31 -8 40 -48 47 -194 8 -164 25 -394 36 -499 17
-150 44 -148 109 9 26 63 58 138 71 165 69 149 191 429 196 449 4 17 -1 27
-21 40 -14 9 -23 21 -20 26 4 6 67 10 144 10 120 0 140 -2 154 -18 13 -15 18
-62 27 -267 6 -137 13 -251 14 -253 2 -1 42 73 89 165 47 92 103 200 124 240
l38 72 -23 24 c-12 13 -19 27 -15 30 13 13 280 8 291 -6 7 -8 13 -140 17 -357
3 -190 8 -360 11 -378 3 -17 17 -43 31 -56 40 -38 23 -46 -97 -46 -158 0 -150
-16 -150 306 0 141 -4 254 -9 254 -9 0 -67 -115 -207 -407 l-73 -153 -84 0
c-62 0 -88 4 -97 15 -17 20 -27 121 -35 353 -4 111 -11 202 -15 202 -9 0 -30
-49 -128 -300 -75 -190 -81 -223 -40 -233 18 -5 19 -8 8 -21 -17 -21 -183 -22
-222 -2 -23 12 -29 12 -39 0 -15 -18 -176 -19 -214 -2 -37 16 -55 57 -55 121
0 30 -3 69 -6 86 l-6 31 -143 0 -143 0 -30 -47 c-76 -120 -84 -146 -54 -169
29 -23 -4 -34 -106 -34 -139 0 -154 14 -105 98 29 49 223 339 353 528 42 61
85 125 96 143 18 31 18 33 2 45 -41 30 -20 36 120 36 75 0 147 -3 159 -6z
m2193 -5 c0 -28 -25 -90 -43 -106 -16 -15 -44 -19 -182 -22 l-164 -3 -20 -61
c-38 -112 -45 -107 128 -107 91 0 152 -4 156 -10 10 -16 -13 -75 -36 -96 -18
-16 -41 -19 -170 -22 l-148 -4 -26 -86 c-14 -48 -30 -100 -35 -116 -19 -58
-24 -56 159 -56 167 0 170 0 199 25 39 33 47 19 32 -48 -16 -66 -37 -102 -67
-116 -15 -7 -118 -11 -281 -11 -337 0 -324 -8 -270 175 44 149 66 224 93 320
15 55 37 134 50 175 38 127 38 127 10 146 -14 9 -22 20 -19 25 8 14 634 12
634 -2z m723 -5 c80 -41 113 -102 102 -191 -16 -123 -111 -226 -227 -247 -45
-8 -51 -15 -35 -47 7 -13 24 -51 37 -84 36 -93 55 -115 97 -115 l35 0 -7 -42
c-10 -60 -31 -97 -60 -104 -14 -3 -57 -4 -95 -2 -87 5 -99 15 -135 123 -15 44
-41 117 -57 163 l-30 82 -39 0 -38 0 -20 -67 c-40 -138 -61 -227 -56 -244 3
-9 15 -19 27 -22 18 -5 19 -8 8 -21 -17 -21 -227 -23 -255 -3 -22 17 -18 57
15 168 49 164 71 236 80 269 11 42 68 233 81 274 15 48 11 84 -11 96 -47 25
-1 30 271 30 238 0 285 -2 312 -16z m530 -5 c7 -11 2 -41 -18 -105 -34 -113
-63 -210 -105 -349 -17 -60 -43 -145 -56 -188 -32 -103 -31 -134 1 -149 19 -9
22 -14 14 -25 -8 -9 -42 -13 -125 -13 -102 0 -116 2 -135 21 -12 12 -18 27
-15 36 4 9 11 36 17 62 6 25 24 87 39 136 31 97 113 384 138 478 14 56 14 59
-7 81 -11 12 -21 26 -21 29 0 4 59 6 131 5 108 -2 134 -6 142 -19z m737 1 c0
-11 -7 -36 -15 -56 -21 -52 -60 -64 -203 -64 -103 0 -123 -3 -144 -19 -69 -55
-173 -415 -142 -496 14 -34 58 -45 190 -45 122 0 130 1 166 27 50 34 62 23 43
-39 -38 -127 -61 -138 -285 -138 -135 0 -167 3 -213 20 -128 48 -165 163 -116
366 40 171 111 325 176 385 29 28 81 57 123 70 14 4 114 8 223 8 192 1 197 0
197 -19z m696 12 c27 -17 34 -64 49 -308 28 -460 28 -465 59 -489 41 -33 18
-45 -88 -45 -73 0 -98 4 -123 20 -36 21 -42 42 -46 155 l-2 70 -139 3 c-164 3
-160 5 -221 -112 -37 -71 -38 -76 -22 -94 29 -32 3 -42 -104 -42 -76 0 -101 4
-114 16 -27 27 -12 55 164 314 207 304 246 361 280 417 32 51 33 57 18 68 -40
29 -19 35 131 35 81 0 152 -4 158 -8z m619 -11 c36 -21 46 -43 130 -281 57
-163 78 -211 88 -207 13 4 30 52 67 192 16 61 39 144 51 185 l20 75 -26 20
c-14 12 -22 24 -19 28 4 4 54 7 110 7 148 0 147 1 97 -165 -14 -44 -29 -98
-34 -120 -6 -21 -20 -73 -33 -115 -32 -102 -64 -219 -88 -315 -21 -83 -34
-115 -52 -127 -19 -13 -125 -9 -160 6 -42 17 -72 56 -90 115 -14 46 -111 305
-140 374 -8 21 -19 37 -24 37 -4 0 -23 -53 -41 -117 -18 -65 -44 -153 -57
-196 -14 -42 -27 -98 -31 -124 -5 -40 -3 -48 17 -63 39 -30 16 -40 -89 -40
-82 0 -103 3 -122 19 l-23 19 33 123 c19 68 46 165 61 214 55 177 110 383 110
408 0 16 -8 31 -20 37 -40 21 -7 30 113 30 101 0 127 -3 152 -19z m1215 -3
c11 -12 20 -29 20 -37 0 -56 32 -544 41 -624 10 -84 15 -102 36 -122 39 -36
22 -45 -82 -45 -152 0 -167 13 -175 155 l-5 90 -142 3 c-165 3 -155 8 -218
-112 -39 -72 -39 -75 -21 -94 10 -12 15 -26 11 -31 -7 -12 -174 -15 -212 -5
-28 8 -38 36 -22 66 17 33 134 208 411 613 37 55 68 105 68 111 0 6 -7 17 -15
24 -8 7 -12 16 -9 21 3 5 70 9 149 9 135 0 145 -1 165 -22z m-2191 -886 c22
-22 27 -35 25 -66 -7 -91 -52 -182 -99 -202 -44 -18 -198 -19 -213 -1 -9 11 6
83 48 220 6 22 9 45 6 52 -7 20 9 23 112 24 89 1 95 0 121 -27z m281 13 c54
-28 48 -107 -11 -142 -35 -21 -38 -57 -8 -89 35 -37 7 -73 -45 -60 -18 4 -30
20 -44 58 -11 29 -24 54 -30 56 -10 3 -28 -43 -34 -88 -2 -20 -9 -26 -33 -28
-54 -4 -61 8 -41 75 9 32 20 71 22 87 3 16 10 40 15 53 5 13 9 37 9 53 0 16 6
31 13 33 29 12 159 6 187 -8z m173 3 c15 -12 13 -21 -13 -103 -17 -49 -30
-100 -30 -113 0 -21 4 -23 42 -20 l42 3 28 85 c15 47 27 100 28 117 0 26 5 34
24 39 34 8 66 -4 66 -25 0 -21 -42 -162 -63 -214 -22 -51 -69 -70 -155 -65
-104 7 -119 46 -70 187 10 30 18 66 18 81 0 15 3 30 7 33 11 11 58 8 76 -5z
m463 -3 c11 -27 -16 -45 -65 -45 -25 0 -57 -6 -70 -13 -30 -15 -49 -66 -50
-129 -1 -48 -1 -48 33 -48 37 0 51 12 58 52 4 21 0 31 -19 43 -38 26 -13 47
51 43 60 -4 63 -11 46 -94 -18 -86 -41 -104 -132 -104 -115 0 -144 29 -123
125 17 78 31 115 58 144 31 33 53 40 135 40 56 1 74 -2 78 -14z m237 2 c16
-11 16 -14 2 -35 -13 -17 -26 -22 -61 -22 -59 0 -62 -28 -4 -54 56 -25 75 -55
61 -99 -20 -60 -51 -79 -133 -84 -84 -5 -119 9 -100 42 8 15 20 18 67 16 98
-4 116 39 32 79 -43 21 -53 30 -55 54 -8 64 51 116 129 116 25 0 53 -6 62 -13z
m292 2 c10 -15 -25 -49 -50 -49 -13 0 -27 -6 -32 -12 -13 -18 -56 -167 -57
-198 -1 -30 -12 -40 -48 -40 -43 0 -48 23 -23 104 13 39 25 87 27 106 3 33 1
35 -26 35 -16 0 -31 5 -32 10 -4 13 17 40 36 48 27 10 199 7 205 -4z m225 -6
c49 -29 54 -54 26 -147 -35 -115 -63 -139 -159 -144 -62 -3 -76 -1 -99 18 -32
24 -35 49 -17 132 14 64 49 122 86 142 38 21 128 20 163 -1z m293 6 c30 -16
37 -28 37 -71 0 -30 -7 -42 -41 -71 -44 -39 -46 -60 -8 -96 24 -22 16 -49 -19
-58 -36 -9 -55 7 -73 63 -9 27 -22 49 -29 49 -15 0 -43 -72 -34 -87 16 -25
-65 -39 -85 -15 -8 11 -6 27 8 68 10 30 26 90 37 134 10 44 23 83 29 87 16 12
154 9 178 -3z m291 5 c19 -7 21 -43 3 -50 -7 -2 -33 -6 -58 -7 -50 -3 -69 -12
-69 -33 0 -10 13 -14 45 -14 32 0 47 -5 51 -15 11 -27 -16 -45 -66 -45 -51 0
-60 -9 -60 -57 0 -24 2 -25 60 -21 51 2 60 0 60 -14 0 -37 -27 -48 -121 -48
-72 0 -91 3 -96 15 -3 9 7 62 22 118 15 56 30 113 32 127 9 50 9 50 97 50 46
0 91 -3 100 -6z"/>
<path d="M4228 2294 c-21 -30 -38 -59 -38 -65 0 -11 87 -12 94 -1 7 11 -5 122
-13 122 -3 -1 -23 -26 -43 -56z"/>
<path d="M4672 2351 c-16 -53 -17 -51 31 -51 51 0 77 22 77 63 0 26 -3 27 -48
27 -48 0 -49 -1 -60 -39z"/>
<path d="M5750 2298 c-19 -29 -35 -57 -35 -62 0 -5 18 -10 40 -10 l40 -1 3 63
c2 34 -1 62 -5 62 -5 0 -24 -24 -43 -52z"/>
<path d="M6808 2289 c-16 -21 -28 -44 -28 -49 0 -6 19 -10 41 -10 l42 0 -7 38
c-3 20 -6 43 -6 50 0 22 -14 12 -42 -29z"/>
<path d="M3670 1644 c-47 -69 -87 -130 -88 -135 -3 -6 36 -9 100 -7 l103 3 -2
60 c-4 104 -14 205 -21 205 -4 -1 -45 -57 -92 -126z"/>
<path d="M6516 1842 c-5 -8 -56 -187 -56 -196 0 -4 38 -6 85 -6 126 0 165 27
181 128 5 32 2 44 -15 61 -18 18 -33 21 -105 21 -47 0 -87 -4 -90 -8z"/>
<path d="M8598 1720 c-20 -30 -59 -88 -87 -128 -28 -40 -51 -77 -51 -83 0 -6
35 -9 93 -7 l92 3 3 65 c1 36 -1 97 -5 135 l-8 70 -37 -55z"/>
<path d="M10391 1684 c-29 -41 -59 -78 -67 -81 -8 -3 -11 -9 -8 -14 3 -6 -6
-25 -20 -43 -14 -19 -22 -36 -19 -40 9 -9 191 -8 196 2 8 16 -8 246 -19 249
-5 2 -34 -31 -63 -73z"/>
<path d="M8305 1028 c-18 -50 -45 -146 -45 -160 0 -14 8 -18 39 -18 50 0 67
17 87 86 23 81 18 98 -34 102 -28 2 -44 -1 -47 -10z"/>
<path d="M8625 1028 c-12 -37 -9 -53 11 -56 26 -4 56 24 52 47 -4 20 -56 28
-63 9z"/>
<path d="M10011 1021 c-23 -23 -54 -112 -49 -143 5 -35 50 -36 76 -3 29 37 49
129 32 150 -17 20 -36 19 -59 -4z"/>
<path d="M10310 1014 c-18 -45 13 -61 50 -24 24 24 16 50 -16 50 -17 0 -27 -8
-34 -26z"/>
</g>
</svg>
